<svg xmlns="http://www.w3.org/2000/svg" viewBox="0 0 177.8 29.54"><g id="레이어_2"><g id="레이어_1-2">
<path d="M72,0h0a4.29,4.29,0,0,0-4.29,4.28v25h8.57v-25A4.28,4.28,0,0,0,72,0" style="fill:#e8363e"></path>
<path d="M59.06,0H46.64a4.29,4.29,0,1,0,0,8.57h8.57a1.72,1.72,0,0,1,1.72,1.72v19H65.5V6.45A6.44,6.44,0,0,0,59.06,0" style="fill:#e8363e"></path>
<path d="M94.62,21.06a6.44,6.44,0,1,1,6.43-6.44,6.44,6.44,0,0,1-6.43,6.44M115.56,0a4.29,4.29,0,0,0-4.29,4.28v6.26h-2.61a14.63,14.63,0,1,0-.13,8.58h2.74V29.25h8.57v-25A4.28,4.28,0,0,0,115.56,0" style="fill:#e8363e"></path>
<path d="M130.5,10.29a1.72,1.72,0,0,1,1.71-1.72h2.73v12.1h-2.73A1.71,1.71,0,0,1,130.5,19Zm-8.6-3.84V22.8a6.44,6.44,0,0,0,6.45,6.44h16.57V20.67h-2.3V8.57h2.3V0H128.35a6.45,6.45,0,0,0-6.45,6.45" style="fill:#e8363e"></path>
<path d="M173.47,20.87a4.34,4.34,0,1,0,4.33,4.34,4.33,4.33,0,0,0-4.33-4.34" style="fill:#e8363e"></path>
<path d="M29.11,16.55a13.6,13.6,0,0,0,.13-1.93,14.75,14.75,0,0,0-.12-1.89h3v3.82ZM14.62,21.06a6.44,6.44,0,1,1,6.44-6.44,6.43,6.43,0,0,1-6.44,6.44M36.37,0a4.29,4.29,0,0,0-4.29,4.28v1H25.89a14.63,14.63,0,1,0,0,18.63h6.19v5.31h8.57v-25A4.28,4.28,0,0,0,36.37,0" style="fill:#e8363e"></path>
<path d="M157.1,0a10,10,0,0,0-10,10v19.2h8.57V10a1.45,1.45,0,0,1,2.9,0v19.2h8.57V10a10,10,0,0,0-10-10" style="fill:#e8363e"></path></g></g></svg>